<mxfile host="app.diagrams.net" modified="2024-03-21T05:53:51.949Z" agent="Mozilla/5.0 (Windows NT 10.0; Win64; x64) AppleWebKit/537.36 (KHTML, like Gecko) Chrome/122.0.0.0 Safari/537.36" etag="288MWRasGIefVB1KvYvz" version="24.0.7" type="github">
  <diagram name="Page-1" id="c7488fd3-1785-93aa-aadb-54a6760d102a">
    <mxGraphModel dx="2333" dy="1238" grid="1" gridSize="10" guides="1" tooltips="1" connect="1" arrows="1" fold="1" page="1" pageScale="1" pageWidth="1100" pageHeight="850" background="none" math="0" shadow="0">
      <root>
        <mxCell id="0" />
        <mxCell id="1" parent="0" />
        <mxCell id="XM1lgo6aPQ4Qn0bg8UeL-2" value="&lt;div&gt;&lt;b&gt;&lt;br&gt;&lt;/b&gt;&lt;/div&gt;&lt;b&gt;Glam&lt;/b&gt;&lt;div&gt;&lt;br&gt;&lt;/div&gt;" style="rounded=0;whiteSpace=wrap;html=1;fillColor=#dae8fc;strokeColor=#6c8ebf;align=center;" vertex="1" parent="1">
          <mxGeometry x="448" y="70" width="120" height="60" as="geometry" />
        </mxCell>
        <mxCell id="XM1lgo6aPQ4Qn0bg8UeL-4" value="" style="endArrow=none;html=1;rounded=0;entryX=0.5;entryY=1;entryDx=0;entryDy=0;" edge="1" parent="1" target="XM1lgo6aPQ4Qn0bg8UeL-2">
          <mxGeometry width="50" height="50" relative="1" as="geometry">
            <mxPoint x="510" y="200" as="sourcePoint" />
            <mxPoint x="560" y="280" as="targetPoint" />
          </mxGeometry>
        </mxCell>
        <mxCell id="XM1lgo6aPQ4Qn0bg8UeL-9" value="" style="endArrow=none;html=1;rounded=0;" edge="1" parent="1">
          <mxGeometry width="50" height="50" relative="1" as="geometry">
            <mxPoint x="160" y="201" as="sourcePoint" />
            <mxPoint x="1515" y="201" as="targetPoint" />
            <Array as="points">
              <mxPoint x="1116" y="201" />
            </Array>
          </mxGeometry>
        </mxCell>
        <mxCell id="XM1lgo6aPQ4Qn0bg8UeL-12" value="" style="endArrow=classic;html=1;rounded=0;" edge="1" parent="1">
          <mxGeometry width="50" height="50" relative="1" as="geometry">
            <mxPoint x="160" y="200" as="sourcePoint" />
            <mxPoint x="160" y="277" as="targetPoint" />
            <Array as="points" />
          </mxGeometry>
        </mxCell>
        <mxCell id="XM1lgo6aPQ4Qn0bg8UeL-13" value="" style="endArrow=classic;html=1;rounded=0;" edge="1" parent="1">
          <mxGeometry width="50" height="50" relative="1" as="geometry">
            <mxPoint x="1516" y="200" as="sourcePoint" />
            <mxPoint x="1516" y="277" as="targetPoint" />
            <Array as="points" />
          </mxGeometry>
        </mxCell>
        <mxCell id="XM1lgo6aPQ4Qn0bg8UeL-14" value="" style="endArrow=classic;html=1;rounded=0;" edge="1" parent="1">
          <mxGeometry width="50" height="50" relative="1" as="geometry">
            <mxPoint x="510" y="200" as="sourcePoint" />
            <mxPoint x="510" y="277" as="targetPoint" />
            <Array as="points">
              <mxPoint x="510" y="230" />
            </Array>
          </mxGeometry>
        </mxCell>
        <mxCell id="XM1lgo6aPQ4Qn0bg8UeL-19" value="" style="edgeStyle=orthogonalEdgeStyle;rounded=0;orthogonalLoop=1;jettySize=auto;html=1;" edge="1" parent="1" source="XM1lgo6aPQ4Qn0bg8UeL-15">
          <mxGeometry relative="1" as="geometry">
            <mxPoint x="160" y="400" as="targetPoint" />
          </mxGeometry>
        </mxCell>
        <mxCell id="XM1lgo6aPQ4Qn0bg8UeL-15" value="&lt;div&gt;Data Prepare&lt;/div&gt;" style="rounded=0;whiteSpace=wrap;html=1;" vertex="1" parent="1">
          <mxGeometry x="100" y="280" width="120" height="60" as="geometry" />
        </mxCell>
        <mxCell id="XM1lgo6aPQ4Qn0bg8UeL-16" value="Text Analytics" style="rounded=0;whiteSpace=wrap;html=1;" vertex="1" parent="1">
          <mxGeometry x="450" y="280" width="120" height="60" as="geometry" />
        </mxCell>
        <mxCell id="XM1lgo6aPQ4Qn0bg8UeL-219" value="" style="edgeStyle=orthogonalEdgeStyle;rounded=0;orthogonalLoop=1;jettySize=auto;html=1;" edge="1" parent="1" source="XM1lgo6aPQ4Qn0bg8UeL-17" target="XM1lgo6aPQ4Qn0bg8UeL-218">
          <mxGeometry relative="1" as="geometry" />
        </mxCell>
        <mxCell id="XM1lgo6aPQ4Qn0bg8UeL-221" value="" style="edgeStyle=orthogonalEdgeStyle;rounded=0;orthogonalLoop=1;jettySize=auto;html=1;" edge="1" parent="1" source="XM1lgo6aPQ4Qn0bg8UeL-17" target="XM1lgo6aPQ4Qn0bg8UeL-220">
          <mxGeometry relative="1" as="geometry" />
        </mxCell>
        <mxCell id="XM1lgo6aPQ4Qn0bg8UeL-17" value="Monitoring" style="rounded=0;whiteSpace=wrap;html=1;" vertex="1" parent="1">
          <mxGeometry x="1456" y="280" width="120" height="60" as="geometry" />
        </mxCell>
        <mxCell id="XM1lgo6aPQ4Qn0bg8UeL-24" value="" style="endArrow=classic;html=1;rounded=0;" edge="1" parent="1">
          <mxGeometry width="50" height="50" relative="1" as="geometry">
            <mxPoint x="509.5" y="340" as="sourcePoint" />
            <mxPoint x="510" y="400" as="targetPoint" />
          </mxGeometry>
        </mxCell>
        <mxCell id="XM1lgo6aPQ4Qn0bg8UeL-28" value="Summerization" style="rounded=0;whiteSpace=wrap;html=1;" vertex="1" parent="1">
          <mxGeometry x="419" y="480" width="120" height="60" as="geometry" />
        </mxCell>
        <mxCell id="XM1lgo6aPQ4Qn0bg8UeL-30" value="" style="endArrow=none;html=1;rounded=0;" edge="1" parent="1">
          <mxGeometry width="50" height="50" relative="1" as="geometry">
            <mxPoint x="320" y="400" as="sourcePoint" />
            <mxPoint x="1219" y="400" as="targetPoint" />
            <Array as="points">
              <mxPoint x="790" y="401" />
            </Array>
          </mxGeometry>
        </mxCell>
        <mxCell id="XM1lgo6aPQ4Qn0bg8UeL-31" value="Translation" style="rounded=0;whiteSpace=wrap;html=1;" vertex="1" parent="1">
          <mxGeometry x="654" y="480" width="121" height="60" as="geometry" />
        </mxCell>
        <mxCell id="XM1lgo6aPQ4Qn0bg8UeL-32" value="Text Insigjht" style="rounded=0;whiteSpace=wrap;html=1;" vertex="1" parent="1">
          <mxGeometry x="859" y="480" width="120" height="60" as="geometry" />
        </mxCell>
        <mxCell id="XM1lgo6aPQ4Qn0bg8UeL-33" value="Moderation" style="rounded=0;whiteSpace=wrap;html=1;" vertex="1" parent="1">
          <mxGeometry x="1179" y="480" width="115" height="61" as="geometry" />
        </mxCell>
        <mxCell id="XM1lgo6aPQ4Qn0bg8UeL-34" value="" style="endArrow=classic;html=1;rounded=0;" edge="1" parent="1">
          <mxGeometry width="50" height="50" relative="1" as="geometry">
            <mxPoint x="478.5" y="400" as="sourcePoint" />
            <mxPoint x="478.5" y="477" as="targetPoint" />
            <Array as="points">
              <mxPoint x="478.5" y="430" />
            </Array>
          </mxGeometry>
        </mxCell>
        <mxCell id="XM1lgo6aPQ4Qn0bg8UeL-35" value="" style="endArrow=classic;html=1;rounded=0;" edge="1" parent="1">
          <mxGeometry width="50" height="50" relative="1" as="geometry">
            <mxPoint x="713.5" y="400" as="sourcePoint" />
            <mxPoint x="713.5" y="477" as="targetPoint" />
            <Array as="points">
              <mxPoint x="713.5" y="430" />
            </Array>
          </mxGeometry>
        </mxCell>
        <mxCell id="XM1lgo6aPQ4Qn0bg8UeL-36" value="" style="endArrow=classic;html=1;rounded=0;" edge="1" parent="1">
          <mxGeometry width="50" height="50" relative="1" as="geometry">
            <mxPoint x="918.5" y="400" as="sourcePoint" />
            <mxPoint x="918.5" y="477" as="targetPoint" />
            <Array as="points">
              <mxPoint x="918.5" y="430" />
            </Array>
          </mxGeometry>
        </mxCell>
        <mxCell id="XM1lgo6aPQ4Qn0bg8UeL-37" value="" style="endArrow=classic;html=1;rounded=0;" edge="1" parent="1">
          <mxGeometry width="50" height="50" relative="1" as="geometry">
            <mxPoint x="1219" y="400" as="sourcePoint" />
            <mxPoint x="1219" y="477" as="targetPoint" />
            <Array as="points" />
          </mxGeometry>
        </mxCell>
        <mxCell id="XM1lgo6aPQ4Qn0bg8UeL-38" value="" style="endArrow=classic;html=1;rounded=0;" edge="1" parent="1">
          <mxGeometry width="50" height="50" relative="1" as="geometry">
            <mxPoint x="479" y="544" as="sourcePoint" />
            <mxPoint x="479" y="600" as="targetPoint" />
            <Array as="points">
              <mxPoint x="479" y="554" />
              <mxPoint x="478.5" y="544" />
            </Array>
          </mxGeometry>
        </mxCell>
        <mxCell id="XM1lgo6aPQ4Qn0bg8UeL-39" value="" style="endArrow=classic;html=1;rounded=0;" edge="1" parent="1">
          <mxGeometry width="50" height="50" relative="1" as="geometry">
            <mxPoint x="719.5" y="540" as="sourcePoint" />
            <mxPoint x="719" y="600" as="targetPoint" />
            <Array as="points">
              <mxPoint x="719.5" y="550" />
              <mxPoint x="719" y="540" />
            </Array>
          </mxGeometry>
        </mxCell>
        <mxCell id="XM1lgo6aPQ4Qn0bg8UeL-40" value="" style="endArrow=classic;html=1;rounded=0;" edge="1" parent="1">
          <mxGeometry width="50" height="50" relative="1" as="geometry">
            <mxPoint x="919" y="540" as="sourcePoint" />
            <mxPoint x="919" y="600" as="targetPoint" />
            <Array as="points">
              <mxPoint x="919" y="550" />
              <mxPoint x="918.5" y="540" />
            </Array>
          </mxGeometry>
        </mxCell>
        <mxCell id="XM1lgo6aPQ4Qn0bg8UeL-41" value="" style="endArrow=classic;html=1;rounded=0;" edge="1" parent="1">
          <mxGeometry width="50" height="50" relative="1" as="geometry">
            <mxPoint x="1219.5" y="540" as="sourcePoint" />
            <mxPoint x="1219" y="600" as="targetPoint" />
            <Array as="points">
              <mxPoint x="1219.5" y="550" />
              <mxPoint x="1219" y="540" />
            </Array>
          </mxGeometry>
        </mxCell>
        <mxCell id="XM1lgo6aPQ4Qn0bg8UeL-45" value="" style="endArrow=none;html=1;rounded=0;entryX=0;entryY=0.75;entryDx=0;entryDy=0;" edge="1" parent="1" target="XM1lgo6aPQ4Qn0bg8UeL-28">
          <mxGeometry width="50" height="50" relative="1" as="geometry">
            <mxPoint x="161" y="521" as="sourcePoint" />
            <mxPoint x="410" y="520" as="targetPoint" />
          </mxGeometry>
        </mxCell>
        <mxCell id="XM1lgo6aPQ4Qn0bg8UeL-46" value="" style="endArrow=none;html=1;rounded=0;" edge="1" parent="1">
          <mxGeometry width="50" height="50" relative="1" as="geometry">
            <mxPoint x="539" y="521" as="sourcePoint" />
            <mxPoint x="649" y="520" as="targetPoint" />
            <Array as="points">
              <mxPoint x="579" y="520" />
            </Array>
          </mxGeometry>
        </mxCell>
        <mxCell id="XM1lgo6aPQ4Qn0bg8UeL-48" value="" style="endArrow=none;html=1;rounded=0;entryX=-0.003;entryY=0.643;entryDx=0;entryDy=0;entryPerimeter=0;" edge="1" parent="1" target="XM1lgo6aPQ4Qn0bg8UeL-32">
          <mxGeometry width="50" height="50" relative="1" as="geometry">
            <mxPoint x="774" y="521" as="sourcePoint" />
            <mxPoint x="804" y="520" as="targetPoint" />
            <Array as="points">
              <mxPoint x="794" y="520" />
            </Array>
          </mxGeometry>
        </mxCell>
        <mxCell id="XM1lgo6aPQ4Qn0bg8UeL-57" value="" style="endArrow=none;html=1;rounded=0;entryX=-0.003;entryY=0.643;entryDx=0;entryDy=0;entryPerimeter=0;" edge="1" parent="1" target="XM1lgo6aPQ4Qn0bg8UeL-33">
          <mxGeometry width="50" height="50" relative="1" as="geometry">
            <mxPoint x="979" y="519" as="sourcePoint" />
            <mxPoint x="869" y="500" as="targetPoint" />
          </mxGeometry>
        </mxCell>
        <mxCell id="XM1lgo6aPQ4Qn0bg8UeL-58" value="" style="endArrow=none;html=1;rounded=0;entryX=0.5;entryY=1;entryDx=0;entryDy=0;" edge="1" parent="1">
          <mxGeometry width="50" height="50" relative="1" as="geometry">
            <mxPoint x="160" y="521" as="sourcePoint" />
            <mxPoint x="160" y="480" as="targetPoint" />
          </mxGeometry>
        </mxCell>
        <mxCell id="XM1lgo6aPQ4Qn0bg8UeL-62" value="text" style="rounded=0;whiteSpace=wrap;html=1;" vertex="1" parent="1">
          <mxGeometry x="366" y="640" width="70" height="60" as="geometry" />
        </mxCell>
        <mxCell id="XM1lgo6aPQ4Qn0bg8UeL-63" value="docs" style="rounded=0;whiteSpace=wrap;html=1;" vertex="1" parent="1">
          <mxGeometry x="519" y="640" width="70" height="60" as="geometry" />
        </mxCell>
        <mxCell id="XM1lgo6aPQ4Qn0bg8UeL-64" value="" style="endArrow=none;html=1;rounded=0;" edge="1" parent="1">
          <mxGeometry width="50" height="50" relative="1" as="geometry">
            <mxPoint x="399" y="600" as="sourcePoint" />
            <mxPoint x="549" y="600" as="targetPoint" />
            <Array as="points">
              <mxPoint x="479" y="600" />
            </Array>
          </mxGeometry>
        </mxCell>
        <mxCell id="XM1lgo6aPQ4Qn0bg8UeL-66" value="" style="endArrow=classic;html=1;rounded=0;" edge="1" parent="1">
          <mxGeometry width="50" height="50" relative="1" as="geometry">
            <mxPoint x="549.5" y="600" as="sourcePoint" />
            <mxPoint x="549" y="640" as="targetPoint" />
            <Array as="points">
              <mxPoint x="549.5" y="610" />
              <mxPoint x="549" y="600" />
              <mxPoint x="549.5" y="636" />
            </Array>
          </mxGeometry>
        </mxCell>
        <mxCell id="XM1lgo6aPQ4Qn0bg8UeL-68" value="" style="endArrow=classic;html=1;rounded=0;" edge="1" parent="1">
          <mxGeometry width="50" height="50" relative="1" as="geometry">
            <mxPoint x="399.5" y="600" as="sourcePoint" />
            <mxPoint x="399" y="640" as="targetPoint" />
            <Array as="points">
              <mxPoint x="399.5" y="610" />
              <mxPoint x="399" y="600" />
              <mxPoint x="399.5" y="636" />
            </Array>
          </mxGeometry>
        </mxCell>
        <mxCell id="XM1lgo6aPQ4Qn0bg8UeL-71" value="text" style="rounded=0;whiteSpace=wrap;html=1;" vertex="1" parent="1">
          <mxGeometry x="619" y="641" width="73" height="60" as="geometry" />
        </mxCell>
        <mxCell id="XM1lgo6aPQ4Qn0bg8UeL-72" value="docs" style="rounded=0;whiteSpace=wrap;html=1;" vertex="1" parent="1">
          <mxGeometry x="769" y="641" width="73" height="60" as="geometry" />
        </mxCell>
        <mxCell id="XM1lgo6aPQ4Qn0bg8UeL-73" value="" style="endArrow=none;html=1;rounded=0;" edge="1" parent="1">
          <mxGeometry width="50" height="50" relative="1" as="geometry">
            <mxPoint x="649" y="601" as="sourcePoint" />
            <mxPoint x="799" y="601" as="targetPoint" />
            <Array as="points">
              <mxPoint x="729" y="601" />
            </Array>
          </mxGeometry>
        </mxCell>
        <mxCell id="XM1lgo6aPQ4Qn0bg8UeL-74" value="" style="endArrow=classic;html=1;rounded=0;" edge="1" parent="1">
          <mxGeometry width="50" height="50" relative="1" as="geometry">
            <mxPoint x="799.5" y="601" as="sourcePoint" />
            <mxPoint x="799" y="641" as="targetPoint" />
            <Array as="points">
              <mxPoint x="799.5" y="611" />
              <mxPoint x="799" y="601" />
              <mxPoint x="799.5" y="637" />
            </Array>
          </mxGeometry>
        </mxCell>
        <mxCell id="XM1lgo6aPQ4Qn0bg8UeL-75" value="" style="endArrow=classic;html=1;rounded=0;" edge="1" parent="1">
          <mxGeometry width="50" height="50" relative="1" as="geometry">
            <mxPoint x="649.5" y="601" as="sourcePoint" />
            <mxPoint x="649" y="641" as="targetPoint" />
            <Array as="points">
              <mxPoint x="649.5" y="611" />
              <mxPoint x="649" y="601" />
              <mxPoint x="649.5" y="637" />
            </Array>
          </mxGeometry>
        </mxCell>
        <mxCell id="XM1lgo6aPQ4Qn0bg8UeL-76" value="text" style="rounded=0;whiteSpace=wrap;html=1;" vertex="1" parent="1">
          <mxGeometry x="855" y="639" width="73" height="60" as="geometry" />
        </mxCell>
        <mxCell id="XM1lgo6aPQ4Qn0bg8UeL-77" value="docs" style="rounded=0;whiteSpace=wrap;html=1;" vertex="1" parent="1">
          <mxGeometry x="1005" y="639" width="73" height="60" as="geometry" />
        </mxCell>
        <mxCell id="XM1lgo6aPQ4Qn0bg8UeL-78" value="" style="endArrow=none;html=1;rounded=0;" edge="1" parent="1">
          <mxGeometry width="50" height="50" relative="1" as="geometry">
            <mxPoint x="885" y="599" as="sourcePoint" />
            <mxPoint x="1035" y="599" as="targetPoint" />
            <Array as="points">
              <mxPoint x="965" y="599" />
            </Array>
          </mxGeometry>
        </mxCell>
        <mxCell id="XM1lgo6aPQ4Qn0bg8UeL-79" value="" style="endArrow=classic;html=1;rounded=0;" edge="1" parent="1">
          <mxGeometry width="50" height="50" relative="1" as="geometry">
            <mxPoint x="1035.5" y="599" as="sourcePoint" />
            <mxPoint x="1035" y="639" as="targetPoint" />
            <Array as="points">
              <mxPoint x="1035.5" y="609" />
              <mxPoint x="1035" y="599" />
              <mxPoint x="1035.5" y="635" />
            </Array>
          </mxGeometry>
        </mxCell>
        <mxCell id="XM1lgo6aPQ4Qn0bg8UeL-80" value="" style="endArrow=classic;html=1;rounded=0;" edge="1" parent="1">
          <mxGeometry width="50" height="50" relative="1" as="geometry">
            <mxPoint x="885.5" y="599" as="sourcePoint" />
            <mxPoint x="885" y="639" as="targetPoint" />
            <Array as="points">
              <mxPoint x="885.5" y="609" />
              <mxPoint x="885" y="599" />
              <mxPoint x="885.5" y="635" />
            </Array>
          </mxGeometry>
        </mxCell>
        <mxCell id="XM1lgo6aPQ4Qn0bg8UeL-81" value="text" style="rounded=0;whiteSpace=wrap;html=1;" vertex="1" parent="1">
          <mxGeometry x="1111" y="641" width="73" height="58" as="geometry" />
        </mxCell>
        <mxCell id="XM1lgo6aPQ4Qn0bg8UeL-82" value="docs" style="rounded=0;whiteSpace=wrap;html=1;" vertex="1" parent="1">
          <mxGeometry x="1255" y="641" width="73" height="58" as="geometry" />
        </mxCell>
        <mxCell id="XM1lgo6aPQ4Qn0bg8UeL-83" value="" style="endArrow=none;html=1;rounded=0;" edge="1" parent="1">
          <mxGeometry width="50" height="50" relative="1" as="geometry">
            <mxPoint x="1141" y="601" as="sourcePoint" />
            <mxPoint x="1291" y="601" as="targetPoint" />
            <Array as="points">
              <mxPoint x="1221" y="601" />
            </Array>
          </mxGeometry>
        </mxCell>
        <mxCell id="XM1lgo6aPQ4Qn0bg8UeL-84" value="" style="endArrow=classic;html=1;rounded=0;" edge="1" parent="1">
          <mxGeometry width="50" height="50" relative="1" as="geometry">
            <mxPoint x="1293.5" y="601" as="sourcePoint" />
            <mxPoint x="1293" y="641" as="targetPoint" />
            <Array as="points">
              <mxPoint x="1293.5" y="611" />
              <mxPoint x="1293" y="601" />
              <mxPoint x="1293.5" y="637" />
            </Array>
          </mxGeometry>
        </mxCell>
        <mxCell id="XM1lgo6aPQ4Qn0bg8UeL-85" value="" style="endArrow=classic;html=1;rounded=0;" edge="1" parent="1">
          <mxGeometry width="50" height="50" relative="1" as="geometry">
            <mxPoint x="1141.5" y="601" as="sourcePoint" />
            <mxPoint x="1141" y="641" as="targetPoint" />
            <Array as="points">
              <mxPoint x="1141.5" y="611" />
              <mxPoint x="1141" y="601" />
              <mxPoint x="1141.5" y="637" />
            </Array>
          </mxGeometry>
        </mxCell>
        <mxCell id="XM1lgo6aPQ4Qn0bg8UeL-87" value="" style="shape=link;html=1;rounded=0;entryX=0.75;entryY=0;entryDx=0;entryDy=0;" edge="1" parent="1" target="XM1lgo6aPQ4Qn0bg8UeL-63">
          <mxGeometry width="100" relative="1" as="geometry">
            <mxPoint x="572" y="520" as="sourcePoint" />
            <mxPoint x="649" y="560" as="targetPoint" />
            <Array as="points" />
          </mxGeometry>
        </mxCell>
        <mxCell id="XM1lgo6aPQ4Qn0bg8UeL-89" value="" style="shape=link;html=1;rounded=0;entryX=0.75;entryY=0;entryDx=0;entryDy=0;" edge="1" parent="1">
          <mxGeometry width="100" relative="1" as="geometry">
            <mxPoint x="813" y="521" as="sourcePoint" />
            <mxPoint x="813" y="641" as="targetPoint" />
            <Array as="points">
              <mxPoint x="813" y="591" />
            </Array>
          </mxGeometry>
        </mxCell>
        <mxCell id="XM1lgo6aPQ4Qn0bg8UeL-90" value="" style="shape=link;html=1;rounded=0;entryX=0.75;entryY=0;entryDx=0;entryDy=0;" edge="1" parent="1">
          <mxGeometry width="100" relative="1" as="geometry">
            <mxPoint x="1054" y="519" as="sourcePoint" />
            <mxPoint x="1054" y="639" as="targetPoint" />
            <Array as="points">
              <mxPoint x="1054" y="589" />
            </Array>
          </mxGeometry>
        </mxCell>
        <mxCell id="XM1lgo6aPQ4Qn0bg8UeL-91" value="" style="shape=link;html=1;rounded=0;entryX=0.75;entryY=0;entryDx=0;entryDy=0;" edge="1" parent="1">
          <mxGeometry width="100" relative="1" as="geometry">
            <mxPoint x="1312" y="522" as="sourcePoint" />
            <mxPoint x="1312" y="642" as="targetPoint" />
            <Array as="points">
              <mxPoint x="1312" y="592" />
            </Array>
          </mxGeometry>
        </mxCell>
        <mxCell id="XM1lgo6aPQ4Qn0bg8UeL-92" value="" style="endArrow=none;html=1;rounded=0;" edge="1" parent="1">
          <mxGeometry width="50" height="50" relative="1" as="geometry">
            <mxPoint x="1293" y="520" as="sourcePoint" />
            <mxPoint x="1318" y="520" as="targetPoint" />
          </mxGeometry>
        </mxCell>
        <mxCell id="XM1lgo6aPQ4Qn0bg8UeL-94" value="Services&lt;div&gt;Azure open ai model&lt;/div&gt;&lt;div&gt;1. gpt 3.5&lt;/div&gt;&lt;div&gt;2. gpt turbo 3.5&lt;/div&gt;&lt;div&gt;3. gpt 4&lt;/div&gt;" style="shape=parallelogram;perimeter=parallelogramPerimeter;whiteSpace=wrap;html=1;fixedSize=1;" vertex="1" parent="1">
          <mxGeometry x="384" y="760" width="180" height="80" as="geometry" />
        </mxCell>
        <mxCell id="XM1lgo6aPQ4Qn0bg8UeL-97" value="" style="endArrow=classic;html=1;rounded=0;" edge="1" parent="1">
          <mxGeometry width="50" height="50" relative="1" as="geometry">
            <mxPoint x="479" y="740" as="sourcePoint" />
            <mxPoint x="479" y="760" as="targetPoint" />
            <Array as="points" />
          </mxGeometry>
        </mxCell>
        <mxCell id="XM1lgo6aPQ4Qn0bg8UeL-98" value="" style="endArrow=none;html=1;rounded=0;" edge="1" parent="1">
          <mxGeometry width="50" height="50" relative="1" as="geometry">
            <mxPoint x="409" y="740" as="sourcePoint" />
            <mxPoint x="549" y="740" as="targetPoint" />
            <Array as="points">
              <mxPoint x="489" y="740" />
            </Array>
          </mxGeometry>
        </mxCell>
        <mxCell id="XM1lgo6aPQ4Qn0bg8UeL-99" value="" style="endArrow=none;html=1;rounded=0;" edge="1" parent="1">
          <mxGeometry width="50" height="50" relative="1" as="geometry">
            <mxPoint x="549" y="740" as="sourcePoint" />
            <mxPoint x="549" y="700" as="targetPoint" />
            <Array as="points">
              <mxPoint x="549" y="740" />
            </Array>
          </mxGeometry>
        </mxCell>
        <mxCell id="XM1lgo6aPQ4Qn0bg8UeL-100" value="" style="endArrow=none;html=1;rounded=0;" edge="1" parent="1">
          <mxGeometry width="50" height="50" relative="1" as="geometry">
            <mxPoint x="409" y="739" as="sourcePoint" />
            <mxPoint x="409" y="699" as="targetPoint" />
            <Array as="points">
              <mxPoint x="409" y="739" />
            </Array>
          </mxGeometry>
        </mxCell>
        <mxCell id="XM1lgo6aPQ4Qn0bg8UeL-103" value="" style="endArrow=none;html=1;rounded=0;" edge="1" parent="1">
          <mxGeometry width="50" height="50" relative="1" as="geometry">
            <mxPoint x="657" y="743" as="sourcePoint" />
            <mxPoint x="797" y="743" as="targetPoint" />
            <Array as="points">
              <mxPoint x="737" y="743" />
            </Array>
          </mxGeometry>
        </mxCell>
        <mxCell id="XM1lgo6aPQ4Qn0bg8UeL-104" value="" style="endArrow=classic;html=1;rounded=0;" edge="1" parent="1">
          <mxGeometry width="50" height="50" relative="1" as="geometry">
            <mxPoint x="727" y="743" as="sourcePoint" />
            <mxPoint x="727" y="763" as="targetPoint" />
            <Array as="points" />
          </mxGeometry>
        </mxCell>
        <mxCell id="XM1lgo6aPQ4Qn0bg8UeL-105" value="" style="endArrow=none;html=1;rounded=0;" edge="1" parent="1">
          <mxGeometry width="50" height="50" relative="1" as="geometry">
            <mxPoint x="657" y="742" as="sourcePoint" />
            <mxPoint x="657" y="702" as="targetPoint" />
            <Array as="points">
              <mxPoint x="657" y="742" />
            </Array>
          </mxGeometry>
        </mxCell>
        <mxCell id="XM1lgo6aPQ4Qn0bg8UeL-106" value="" style="endArrow=none;html=1;rounded=0;" edge="1" parent="1">
          <mxGeometry width="50" height="50" relative="1" as="geometry">
            <mxPoint x="797" y="743" as="sourcePoint" />
            <mxPoint x="797" y="703" as="targetPoint" />
            <Array as="points">
              <mxPoint x="797" y="743" />
            </Array>
          </mxGeometry>
        </mxCell>
        <mxCell id="XM1lgo6aPQ4Qn0bg8UeL-107" value="Services&lt;div&gt;Azure Translation for text and document&lt;/div&gt;" style="shape=parallelogram;perimeter=parallelogramPerimeter;whiteSpace=wrap;html=1;fixedSize=1;" vertex="1" parent="1">
          <mxGeometry x="632" y="763" width="180" height="80" as="geometry" />
        </mxCell>
        <mxCell id="XM1lgo6aPQ4Qn0bg8UeL-108" value="" style="endArrow=none;html=1;rounded=0;" edge="1" parent="1">
          <mxGeometry width="50" height="50" relative="1" as="geometry">
            <mxPoint x="898" y="740" as="sourcePoint" />
            <mxPoint x="1038" y="740" as="targetPoint" />
            <Array as="points">
              <mxPoint x="978" y="740" />
            </Array>
          </mxGeometry>
        </mxCell>
        <mxCell id="XM1lgo6aPQ4Qn0bg8UeL-109" value="" style="endArrow=classic;html=1;rounded=0;" edge="1" parent="1">
          <mxGeometry width="50" height="50" relative="1" as="geometry">
            <mxPoint x="968" y="740" as="sourcePoint" />
            <mxPoint x="968" y="760" as="targetPoint" />
            <Array as="points" />
          </mxGeometry>
        </mxCell>
        <mxCell id="XM1lgo6aPQ4Qn0bg8UeL-110" value="" style="endArrow=none;html=1;rounded=0;" edge="1" parent="1">
          <mxGeometry width="50" height="50" relative="1" as="geometry">
            <mxPoint x="898" y="739" as="sourcePoint" />
            <mxPoint x="898" y="699" as="targetPoint" />
            <Array as="points">
              <mxPoint x="898" y="739" />
            </Array>
          </mxGeometry>
        </mxCell>
        <mxCell id="XM1lgo6aPQ4Qn0bg8UeL-111" value="" style="endArrow=none;html=1;rounded=0;" edge="1" parent="1">
          <mxGeometry width="50" height="50" relative="1" as="geometry">
            <mxPoint x="1038" y="740" as="sourcePoint" />
            <mxPoint x="1038" y="700" as="targetPoint" />
            <Array as="points">
              <mxPoint x="1038" y="740" />
            </Array>
          </mxGeometry>
        </mxCell>
        <mxCell id="XM1lgo6aPQ4Qn0bg8UeL-112" value="Services&lt;div&gt;Text analytics cognitive services&lt;/div&gt;" style="shape=parallelogram;perimeter=parallelogramPerimeter;whiteSpace=wrap;html=1;fixedSize=1;" vertex="1" parent="1">
          <mxGeometry x="873" y="760" width="180" height="80" as="geometry" />
        </mxCell>
        <mxCell id="XM1lgo6aPQ4Qn0bg8UeL-113" value="" style="endArrow=none;html=1;rounded=0;" edge="1" parent="1">
          <mxGeometry width="50" height="50" relative="1" as="geometry">
            <mxPoint x="1152" y="741" as="sourcePoint" />
            <mxPoint x="1292" y="741" as="targetPoint" />
            <Array as="points">
              <mxPoint x="1232" y="741" />
            </Array>
          </mxGeometry>
        </mxCell>
        <mxCell id="XM1lgo6aPQ4Qn0bg8UeL-114" value="" style="endArrow=classic;html=1;rounded=0;" edge="1" parent="1">
          <mxGeometry width="50" height="50" relative="1" as="geometry">
            <mxPoint x="1222" y="741" as="sourcePoint" />
            <mxPoint x="1222" y="761" as="targetPoint" />
            <Array as="points" />
          </mxGeometry>
        </mxCell>
        <mxCell id="XM1lgo6aPQ4Qn0bg8UeL-115" value="" style="endArrow=none;html=1;rounded=0;" edge="1" parent="1">
          <mxGeometry width="50" height="50" relative="1" as="geometry">
            <mxPoint x="1152" y="740" as="sourcePoint" />
            <mxPoint x="1152" y="700" as="targetPoint" />
            <Array as="points">
              <mxPoint x="1152" y="740" />
            </Array>
          </mxGeometry>
        </mxCell>
        <mxCell id="XM1lgo6aPQ4Qn0bg8UeL-116" value="" style="endArrow=none;html=1;rounded=0;" edge="1" parent="1">
          <mxGeometry width="50" height="50" relative="1" as="geometry">
            <mxPoint x="1294" y="741" as="sourcePoint" />
            <mxPoint x="1294" y="701" as="targetPoint" />
            <Array as="points">
              <mxPoint x="1294" y="741" />
            </Array>
          </mxGeometry>
        </mxCell>
        <mxCell id="XM1lgo6aPQ4Qn0bg8UeL-117" value="Services&lt;div&gt;Azure MOderation&lt;/div&gt;" style="shape=parallelogram;perimeter=parallelogramPerimeter;whiteSpace=wrap;html=1;fixedSize=1;" vertex="1" parent="1">
          <mxGeometry x="1127" y="761" width="180" height="80" as="geometry" />
        </mxCell>
        <mxCell id="XM1lgo6aPQ4Qn0bg8UeL-124" value="AZure blob storage" style="shape=cylinder3;whiteSpace=wrap;html=1;boundedLbl=1;backgroundOutline=1;size=15;" vertex="1" parent="1">
          <mxGeometry x="90" y="530" width="60" height="80" as="geometry" />
        </mxCell>
        <mxCell id="XM1lgo6aPQ4Qn0bg8UeL-126" value="" style="endArrow=classic;html=1;rounded=0;" edge="1" parent="1">
          <mxGeometry width="50" height="50" relative="1" as="geometry">
            <mxPoint x="120" y="480" as="sourcePoint" />
            <mxPoint x="120" y="536" as="targetPoint" />
            <Array as="points">
              <mxPoint x="120" y="490" />
              <mxPoint x="119.5" y="480" />
            </Array>
          </mxGeometry>
        </mxCell>
        <mxCell id="XM1lgo6aPQ4Qn0bg8UeL-127" value="upload file/delete file/and contain all the uploaded file" style="strokeWidth=2;html=1;shape=mxgraph.flowchart.document2;whiteSpace=wrap;size=0.25;" vertex="1" parent="1">
          <mxGeometry x="70" y="400" width="180" height="85" as="geometry" />
        </mxCell>
        <mxCell id="XM1lgo6aPQ4Qn0bg8UeL-161" value="&lt;font style=&quot;font-size: 16px;&quot;&gt;&lt;b&gt;Q&amp;amp;A&lt;/b&gt;&lt;/font&gt;" style="rounded=0;whiteSpace=wrap;html=1;" vertex="1" parent="1">
          <mxGeometry x="190" y="677.5" width="120" height="60" as="geometry" />
        </mxCell>
        <mxCell id="XM1lgo6aPQ4Qn0bg8UeL-164" value="" style="endArrow=none;html=1;rounded=0;" edge="1" parent="1">
          <mxGeometry width="50" height="50" relative="1" as="geometry">
            <mxPoint x="320" y="600" as="sourcePoint" />
            <mxPoint x="320" y="400" as="targetPoint" />
          </mxGeometry>
        </mxCell>
        <mxCell id="XM1lgo6aPQ4Qn0bg8UeL-165" value="" style="endArrow=none;html=1;rounded=0;" edge="1" parent="1">
          <mxGeometry width="50" height="50" relative="1" as="geometry">
            <mxPoint x="320" y="600" as="sourcePoint" />
            <mxPoint x="240" y="600" as="targetPoint" />
          </mxGeometry>
        </mxCell>
        <mxCell id="XM1lgo6aPQ4Qn0bg8UeL-166" value="" style="endArrow=classic;html=1;rounded=0;" edge="1" parent="1">
          <mxGeometry width="50" height="50" relative="1" as="geometry">
            <mxPoint x="240.5" y="621.5" as="sourcePoint" />
            <mxPoint x="240.5" y="677.5" as="targetPoint" />
            <Array as="points">
              <mxPoint x="240.5" y="631.5" />
              <mxPoint x="240" y="600" />
              <mxPoint x="240.5" y="647.5" />
            </Array>
          </mxGeometry>
        </mxCell>
        <mxCell id="XM1lgo6aPQ4Qn0bg8UeL-178" value="" style="edgeStyle=orthogonalEdgeStyle;rounded=0;orthogonalLoop=1;jettySize=auto;html=1;" edge="1" parent="1">
          <mxGeometry relative="1" as="geometry">
            <mxPoint x="161" y="925.9999999999998" as="sourcePoint" />
            <mxPoint x="140.5714285714289" y="1015.9999999999998" as="targetPoint" />
          </mxGeometry>
        </mxCell>
        <mxCell id="XM1lgo6aPQ4Qn0bg8UeL-189" value="" style="edgeStyle=orthogonalEdgeStyle;rounded=0;orthogonalLoop=1;jettySize=auto;html=1;" edge="1" parent="1" source="XM1lgo6aPQ4Qn0bg8UeL-168">
          <mxGeometry relative="1" as="geometry">
            <mxPoint x="550" y="1016" as="targetPoint" />
          </mxGeometry>
        </mxCell>
        <mxCell id="XM1lgo6aPQ4Qn0bg8UeL-168" value="&lt;font style=&quot;font-size: 16px;&quot;&gt;Azure Search service&lt;/font&gt;" style="shape=parallelogram;perimeter=parallelogramPerimeter;whiteSpace=wrap;html=1;fixedSize=1;" vertex="1" parent="1">
          <mxGeometry x="145" y="846" width="195" height="80" as="geometry" />
        </mxCell>
        <mxCell id="XM1lgo6aPQ4Qn0bg8UeL-169" value="" style="endArrow=classic;html=1;rounded=0;entryX=0.5;entryY=0;entryDx=0;entryDy=0;entryPerimeter=0;" edge="1" parent="1" target="XM1lgo6aPQ4Qn0bg8UeL-168">
          <mxGeometry width="50" height="50" relative="1" as="geometry">
            <mxPoint x="239.79" y="737.5" as="sourcePoint" />
            <mxPoint x="239.79" y="793.5" as="targetPoint" />
            <Array as="points">
              <mxPoint x="239.79" y="747.5" />
              <mxPoint x="239.29" y="737.5" />
            </Array>
          </mxGeometry>
        </mxCell>
        <mxCell id="XM1lgo6aPQ4Qn0bg8UeL-174" value="" style="endArrow=none;html=1;rounded=0;exitX=0.5;exitY=1;exitDx=0;exitDy=0;exitPerimeter=0;" edge="1" parent="1" source="XM1lgo6aPQ4Qn0bg8UeL-124">
          <mxGeometry width="50" height="50" relative="1" as="geometry">
            <mxPoint x="31" y="639" as="sourcePoint" />
            <mxPoint x="120" y="840" as="targetPoint" />
          </mxGeometry>
        </mxCell>
        <mxCell id="XM1lgo6aPQ4Qn0bg8UeL-176" value="" style="endArrow=classic;html=1;rounded=0;entryX=0;entryY=0.75;entryDx=0;entryDy=0;" edge="1" parent="1">
          <mxGeometry width="50" height="50" relative="1" as="geometry">
            <mxPoint x="122.74999999999996" y="840" as="sourcePoint" />
            <mxPoint x="158.25411764705902" y="872.5735294117646" as="targetPoint" />
            <Array as="points">
              <mxPoint x="122.74999999999996" y="850" />
              <mxPoint x="122.74999999999996" y="876" />
            </Array>
          </mxGeometry>
        </mxCell>
        <mxCell id="XM1lgo6aPQ4Qn0bg8UeL-177" value="index" style="rounded=1;whiteSpace=wrap;html=1;" vertex="1" parent="1">
          <mxGeometry x="101" y="1017" width="79" height="60" as="geometry" />
        </mxCell>
        <mxCell id="XM1lgo6aPQ4Qn0bg8UeL-179" value="" style="edgeStyle=orthogonalEdgeStyle;rounded=0;orthogonalLoop=1;jettySize=auto;html=1;" edge="1" parent="1">
          <mxGeometry relative="1" as="geometry">
            <mxPoint x="250" y="926.9999999999998" as="sourcePoint" />
            <mxPoint x="229.42857142857133" y="1017" as="targetPoint" />
          </mxGeometry>
        </mxCell>
        <mxCell id="XM1lgo6aPQ4Qn0bg8UeL-180" value="indexer" style="rounded=1;whiteSpace=wrap;html=1;" vertex="1" parent="1">
          <mxGeometry x="190" y="1018" width="79" height="60" as="geometry" />
        </mxCell>
        <mxCell id="XM1lgo6aPQ4Qn0bg8UeL-181" value="" style="edgeStyle=orthogonalEdgeStyle;rounded=0;orthogonalLoop=1;jettySize=auto;html=1;exitX=0.75;exitY=1;exitDx=0;exitDy=0;" edge="1" parent="1" source="XM1lgo6aPQ4Qn0bg8UeL-168">
          <mxGeometry relative="1" as="geometry">
            <mxPoint x="304" y="936" as="sourcePoint" />
            <mxPoint x="326.57142857142867" y="1017" as="targetPoint" />
          </mxGeometry>
        </mxCell>
        <mxCell id="XM1lgo6aPQ4Qn0bg8UeL-182" value="Data source" style="rounded=1;whiteSpace=wrap;html=1;" vertex="1" parent="1">
          <mxGeometry x="287" y="1018" width="79" height="60" as="geometry" />
        </mxCell>
        <mxCell id="XM1lgo6aPQ4Qn0bg8UeL-185" value="Skill set" style="rounded=1;whiteSpace=wrap;html=1;" vertex="1" parent="1">
          <mxGeometry x="387" y="1018" width="79" height="60" as="geometry" />
        </mxCell>
        <mxCell id="XM1lgo6aPQ4Qn0bg8UeL-186" value="" style="edgeStyle=orthogonalEdgeStyle;rounded=0;orthogonalLoop=1;jettySize=auto;html=1;exitX=1;exitY=1;exitDx=0;exitDy=0;" edge="1" parent="1" source="XM1lgo6aPQ4Qn0bg8UeL-168">
          <mxGeometry relative="1" as="geometry">
            <mxPoint x="391" y="926" as="sourcePoint" />
            <mxPoint x="426.57142857142867" y="1017" as="targetPoint" />
          </mxGeometry>
        </mxCell>
        <mxCell id="XM1lgo6aPQ4Qn0bg8UeL-187" value="Open ai model&lt;div&gt;(Embedding model)&lt;/div&gt;" style="whiteSpace=wrap;html=1;rounded=1;" vertex="1" parent="1">
          <mxGeometry x="490" y="1018" width="124" height="60" as="geometry" />
        </mxCell>
        <mxCell id="XM1lgo6aPQ4Qn0bg8UeL-194" value="&lt;font style=&quot;font-size: 21px;&quot;&gt;Glam deployment&lt;/font&gt;" style="whiteSpace=wrap;html=1;" vertex="1" parent="1">
          <mxGeometry x="1584" y="1235" width="250" height="120" as="geometry" />
        </mxCell>
        <mxCell id="XM1lgo6aPQ4Qn0bg8UeL-195" value="" style="strokeWidth=2;html=1;shape=mxgraph.flowchart.annotation_2;align=left;labelPosition=right;pointerEvents=1;direction=south;" vertex="1" parent="1">
          <mxGeometry x="1394" y="1355" width="650" height="110" as="geometry" />
        </mxCell>
        <mxCell id="XM1lgo6aPQ4Qn0bg8UeL-196" value="" style="edgeStyle=orthogonalEdgeStyle;rounded=0;orthogonalLoop=1;jettySize=auto;html=1;" edge="1" parent="1" source="XM1lgo6aPQ4Qn0bg8UeL-197" target="XM1lgo6aPQ4Qn0bg8UeL-201">
          <mxGeometry relative="1" as="geometry" />
        </mxCell>
        <mxCell id="XM1lgo6aPQ4Qn0bg8UeL-197" value="&lt;span style=&quot;font-size: 21px;&quot;&gt;ON AKS&lt;/span&gt;&lt;div&gt;&lt;span style=&quot;font-size: 21px;&quot;&gt;(Azure Kubernetes Services)&lt;/span&gt;&lt;/div&gt;" style="whiteSpace=wrap;html=1;" vertex="1" parent="1">
          <mxGeometry x="1286" y="1465" width="250" height="120" as="geometry" />
        </mxCell>
        <mxCell id="XM1lgo6aPQ4Qn0bg8UeL-198" value="" style="edgeStyle=orthogonalEdgeStyle;rounded=0;orthogonalLoop=1;jettySize=auto;html=1;" edge="1" parent="1" target="XM1lgo6aPQ4Qn0bg8UeL-212">
          <mxGeometry relative="1" as="geometry">
            <mxPoint x="2019" y="1585" as="sourcePoint" />
          </mxGeometry>
        </mxCell>
        <mxCell id="XM1lgo6aPQ4Qn0bg8UeL-199" value="&lt;span style=&quot;font-size: 21px;&quot;&gt;ON APP SERVICES&lt;/span&gt;" style="whiteSpace=wrap;html=1;" vertex="1" parent="1">
          <mxGeometry x="1899" y="1465" width="250" height="120" as="geometry" />
        </mxCell>
        <mxCell id="XM1lgo6aPQ4Qn0bg8UeL-200" value="" style="edgeStyle=orthogonalEdgeStyle;rounded=0;orthogonalLoop=1;jettySize=auto;html=1;" edge="1" parent="1" source="XM1lgo6aPQ4Qn0bg8UeL-201" target="XM1lgo6aPQ4Qn0bg8UeL-203">
          <mxGeometry relative="1" as="geometry" />
        </mxCell>
        <mxCell id="XM1lgo6aPQ4Qn0bg8UeL-201" value="&lt;font style=&quot;font-size: 16px;&quot;&gt;Create a image of the&amp;nbsp;&amp;nbsp;&lt;/font&gt;&lt;div style=&quot;font-size: 16px;&quot;&gt;&lt;font style=&quot;font-size: 16px;&quot;&gt;Application&lt;/font&gt;&lt;/div&gt;" style="shape=parallelogram;html=1;strokeWidth=2;perimeter=parallelogramPerimeter;whiteSpace=wrap;rounded=1;arcSize=12;size=0.23;" vertex="1" parent="1">
          <mxGeometry x="1276" y="1680" width="290" height="85" as="geometry" />
        </mxCell>
        <mxCell id="XM1lgo6aPQ4Qn0bg8UeL-202" value="" style="edgeStyle=orthogonalEdgeStyle;rounded=0;orthogonalLoop=1;jettySize=auto;html=1;" edge="1" parent="1" source="XM1lgo6aPQ4Qn0bg8UeL-203" target="XM1lgo6aPQ4Qn0bg8UeL-205">
          <mxGeometry relative="1" as="geometry" />
        </mxCell>
        <mxCell id="XM1lgo6aPQ4Qn0bg8UeL-203" value="&lt;span style=&quot;font-size: 16px;&quot;&gt;Create a Container&lt;/span&gt;&lt;div&gt;&lt;span style=&quot;font-size: 16px;&quot;&gt;Registry on azure&lt;/span&gt;&lt;/div&gt;" style="shape=parallelogram;html=1;strokeWidth=2;perimeter=parallelogramPerimeter;whiteSpace=wrap;rounded=1;arcSize=12;size=0.23;" vertex="1" parent="1">
          <mxGeometry x="1256" y="1823.5" width="290" height="85" as="geometry" />
        </mxCell>
        <mxCell id="XM1lgo6aPQ4Qn0bg8UeL-204" value="" style="edgeStyle=orthogonalEdgeStyle;rounded=0;orthogonalLoop=1;jettySize=auto;html=1;" edge="1" parent="1" source="XM1lgo6aPQ4Qn0bg8UeL-205">
          <mxGeometry relative="1" as="geometry">
            <mxPoint x="1351" y="2155" as="targetPoint" />
          </mxGeometry>
        </mxCell>
        <mxCell id="XM1lgo6aPQ4Qn0bg8UeL-205" value="&lt;span style=&quot;font-size: 16px;&quot;&gt;Tag your iamge&amp;nbsp;&amp;nbsp;&lt;/span&gt;&lt;div&gt;&lt;span style=&quot;font-size: 16px;&quot;&gt;with the version&lt;/span&gt;&lt;/div&gt;&lt;div&gt;&lt;span style=&quot;font-size: 16px;&quot;&gt;and push on the&lt;/span&gt;&lt;/div&gt;&lt;div&gt;&lt;span style=&quot;font-size: 16px;&quot;&gt;&amp;nbsp;container registry&lt;/span&gt;&lt;/div&gt;" style="shape=parallelogram;html=1;strokeWidth=2;perimeter=parallelogramPerimeter;whiteSpace=wrap;rounded=1;arcSize=12;size=0.23;" vertex="1" parent="1">
          <mxGeometry x="1246" y="1965" width="290" height="130" as="geometry" />
        </mxCell>
        <mxCell id="XM1lgo6aPQ4Qn0bg8UeL-206" value="" style="edgeStyle=orthogonalEdgeStyle;rounded=0;orthogonalLoop=1;jettySize=auto;html=1;" edge="1" parent="1">
          <mxGeometry relative="1" as="geometry">
            <mxPoint x="1311" y="2357" as="sourcePoint" />
            <mxPoint x="1276.0769230769229" y="2474" as="targetPoint" />
          </mxGeometry>
        </mxCell>
        <mxCell id="XM1lgo6aPQ4Qn0bg8UeL-207" value="&lt;span style=&quot;font-size: 16px;&quot;&gt;Create a Private&amp;nbsp; Cluster&amp;nbsp;&lt;/span&gt;&lt;div&gt;&lt;span style=&quot;font-size: 16px;&quot;&gt;and a VM in the same vNet&lt;/span&gt;&lt;/div&gt;&lt;div&gt;&lt;span style=&quot;font-size: 16px;&quot;&gt;(Vm is needed to&amp;nbsp;&lt;/span&gt;&lt;/div&gt;&lt;div&gt;&lt;span style=&quot;font-size: 16px;&quot;&gt;access the private&amp;nbsp; cluster&amp;nbsp;&lt;/span&gt;&lt;/div&gt;&lt;div&gt;&lt;span style=&quot;font-size: 16px;&quot;&gt;and both resouces&lt;/span&gt;&lt;/div&gt;&lt;div&gt;&lt;span style=&quot;font-size: 16px;&quot;&gt;&amp;nbsp;should be&lt;/span&gt;&lt;/div&gt;&lt;div&gt;&lt;span style=&quot;font-size: 16px;&quot;&gt;&amp;nbsp;in the same vNet or&amp;nbsp;&lt;/span&gt;&lt;/div&gt;&lt;div&gt;&lt;span style=&quot;font-size: 16px;&quot;&gt;be paired)&lt;/span&gt;&lt;/div&gt;" style="shape=parallelogram;html=1;strokeWidth=2;perimeter=parallelogramPerimeter;whiteSpace=wrap;rounded=1;arcSize=12;size=0.23;" vertex="1" parent="1">
          <mxGeometry x="1130" y="2157" width="370" height="200" as="geometry" />
        </mxCell>
        <mxCell id="XM1lgo6aPQ4Qn0bg8UeL-208" value="" style="edgeStyle=orthogonalEdgeStyle;rounded=0;orthogonalLoop=1;jettySize=auto;html=1;" edge="1" parent="1">
          <mxGeometry relative="1" as="geometry">
            <mxPoint x="1276.0769230769229" y="2564" as="sourcePoint" />
            <mxPoint x="1281" y="2630" as="targetPoint" />
          </mxGeometry>
        </mxCell>
        <mxCell id="XM1lgo6aPQ4Qn0bg8UeL-209" value="&lt;b&gt;&lt;font style=&quot;font-size: 16px;&quot;&gt;Attatch your container registeery while creating cluster or via&amp;nbsp; azure cli ncommand&lt;/font&gt;&lt;/b&gt;" style="whiteSpace=wrap;html=1;strokeWidth=2;rounded=1;arcSize=12;" vertex="1" parent="1">
          <mxGeometry x="1184" y="2474" width="180" height="90" as="geometry" />
        </mxCell>
        <mxCell id="XM1lgo6aPQ4Qn0bg8UeL-210" value="&lt;font style=&quot;font-size: 17px;&quot;&gt;Run the deployment Yaml file&lt;/font&gt;" style="rounded=1;whiteSpace=wrap;html=1;absoluteArcSize=1;arcSize=14;strokeWidth=2;" vertex="1" parent="1">
          <mxGeometry x="1184" y="2630" width="190" height="100" as="geometry" />
        </mxCell>
        <mxCell id="XM1lgo6aPQ4Qn0bg8UeL-211" value="" style="edgeStyle=orthogonalEdgeStyle;rounded=0;orthogonalLoop=1;jettySize=auto;html=1;" edge="1" parent="1">
          <mxGeometry relative="1" as="geometry">
            <mxPoint x="1986.0769230769233" y="1772.5" as="sourcePoint" />
            <mxPoint x="1996.0769230769233" y="1855" as="targetPoint" />
          </mxGeometry>
        </mxCell>
        <mxCell id="XM1lgo6aPQ4Qn0bg8UeL-212" value="&lt;font style=&quot;font-size: 16px;&quot;&gt;Create a image of the&amp;nbsp;&amp;nbsp;&lt;/font&gt;&lt;div style=&quot;font-size: 16px;&quot;&gt;Application&lt;/div&gt;" style="shape=parallelogram;perimeter=parallelogramPerimeter;whiteSpace=wrap;html=1;fixedSize=1;" vertex="1" parent="1">
          <mxGeometry x="1864" y="1672.5" width="240" height="100" as="geometry" />
        </mxCell>
        <mxCell id="XM1lgo6aPQ4Qn0bg8UeL-213" value="" style="edgeStyle=orthogonalEdgeStyle;rounded=0;orthogonalLoop=1;jettySize=auto;html=1;" edge="1" parent="1">
          <mxGeometry relative="1" as="geometry">
            <mxPoint x="1996.0769230769233" y="1932.5000000000002" as="sourcePoint" />
            <mxPoint x="1986.0769230769233" y="2021.2499999999998" as="targetPoint" />
          </mxGeometry>
        </mxCell>
        <mxCell id="XM1lgo6aPQ4Qn0bg8UeL-214" value="&lt;span style=&quot;font-size: 16px;&quot;&gt;Create a Container&lt;/span&gt;&lt;div&gt;&lt;span style=&quot;font-size: 16px;&quot;&gt;Registry on azure&lt;/span&gt;&lt;/div&gt;" style="shape=parallelogram;perimeter=parallelogramPerimeter;whiteSpace=wrap;html=1;fixedSize=1;" vertex="1" parent="1">
          <mxGeometry x="1864" y="1855" width="260" height="77.5" as="geometry" />
        </mxCell>
        <mxCell id="XM1lgo6aPQ4Qn0bg8UeL-215" value="" style="edgeStyle=orthogonalEdgeStyle;rounded=0;orthogonalLoop=1;jettySize=auto;html=1;" edge="1" parent="1">
          <mxGeometry relative="1" as="geometry">
            <mxPoint x="1986.0769230769233" y="2115" as="sourcePoint" />
            <mxPoint x="1916.0769230769233" y="2195" as="targetPoint" />
          </mxGeometry>
        </mxCell>
        <mxCell id="XM1lgo6aPQ4Qn0bg8UeL-216" value="&lt;span style=&quot;font-size: 16px;&quot;&gt;Tag your iamge&amp;nbsp;&amp;nbsp;&lt;/span&gt;&lt;div&gt;&lt;span style=&quot;font-size: 16px;&quot;&gt;with the version&lt;/span&gt;&lt;/div&gt;&lt;div&gt;&lt;span style=&quot;font-size: 16px;&quot;&gt;and push on the&lt;/span&gt;&lt;/div&gt;&lt;div&gt;&lt;span style=&quot;font-size: 16px;&quot;&gt;&amp;nbsp;container registry&lt;/span&gt;&lt;/div&gt;" style="shape=parallelogram;perimeter=parallelogramPerimeter;whiteSpace=wrap;html=1;fixedSize=1;" vertex="1" parent="1">
          <mxGeometry x="1844" y="2021.25" width="280" height="93.75" as="geometry" />
        </mxCell>
        <mxCell id="XM1lgo6aPQ4Qn0bg8UeL-217" value="&lt;font style=&quot;font-size: 16px;&quot;&gt;Create App services on Azure portal&lt;/font&gt;&lt;div&gt;&lt;font style=&quot;font-size: 16px;&quot;&gt;Select deployment option as Image via a container registry&lt;/font&gt;&lt;/div&gt;" style="rounded=1;whiteSpace=wrap;html=1;" vertex="1" parent="1">
          <mxGeometry x="1764" y="2195" width="300" height="153.12" as="geometry" />
        </mxCell>
        <mxCell id="XM1lgo6aPQ4Qn0bg8UeL-218" value="&lt;span style=&quot;font-size: 19px;&quot;&gt;Statistics&lt;/span&gt;&lt;div&gt;&lt;span style=&quot;font-size: 19px;&quot;&gt;in table and graph format&lt;/span&gt;&lt;/div&gt;" style="whiteSpace=wrap;html=1;rounded=0;" vertex="1" parent="1">
          <mxGeometry x="1456" y="420" width="184" height="100" as="geometry" />
        </mxCell>
        <mxCell id="XM1lgo6aPQ4Qn0bg8UeL-220" value="&lt;font style=&quot;font-size: 19px;&quot;&gt;Log Server&lt;/font&gt;" style="rounded=0;whiteSpace=wrap;html=1;" vertex="1" parent="1">
          <mxGeometry x="1744" y="425" width="120" height="60" as="geometry" />
        </mxCell>
      </root>
    </mxGraphModel>
  </diagram>
</mxfile>
